#N canvas 420 172 822 391 12;
#N canvas 286 251 352 492 rgb 0;
#X obj 62 57 inlet;
#X obj 139 59 inlet;
#X obj 205 60 inlet;
#X text 67 32 red;
#X text 137 34 green;
#X text 209 34 blue;
#X obj 139 354 +;
#X obj 139 380 +;
#X obj 62 273 * -65536;
#X obj 139 274 * -256;
#X obj 205 274 * -1;
#X obj 139 411 - 1;
#X obj 139 446 outlet;
#X obj 72 318 t f b;
#X obj 62 162 pack f f f;
#X obj 62 225 clip 0 255;
#X obj 132 225 clip 0 255;
#X obj 202 225 clip 0 255;
#X obj 62 191 unpack f f f;
#X obj 84 110 t b f;
#X obj 174 110 t b f;
#X connect 0 0 14 0;
#X connect 1 0 19 0;
#X connect 2 0 20 0;
#X connect 6 0 7 1;
#X connect 7 0 11 0;
#X connect 8 0 13 0;
#X connect 9 0 6 0;
#X connect 10 0 6 1;
#X connect 11 0 12 0;
#X connect 13 0 7 0;
#X connect 13 1 6 0;
#X connect 14 0 18 0;
#X connect 15 0 8 0;
#X connect 16 0 9 0;
#X connect 17 0 10 0;
#X connect 18 0 15 0;
#X connect 18 1 16 0;
#X connect 18 2 17 0;
#X connect 19 0 14 0;
#X connect 19 1 14 1;
#X connect 20 0 14 0;
#X connect 20 1 14 2;
#X restore 47 189 pd rgb;
#X obj 17 23 vsl 15 128 0 255 0 0 empty empty R 0 -9 0 10 #fcfcfc #000000 #000000 0 1;
#X obj 57 23 vsl 15 128 0 255 0 0 empty empty G 0 -9 0 10 #fcfcfc #000000 #000000 0 1;
#X obj 99 25 vsl 15 128 0 255 0 0 empty empty B 0 -9 0 10 #fcfcfc #000000 #000000 0 1;
#X msg 47 214 color \$1;
#X obj 45 259 s canvas;
#X obj 126 9 cnv 15 100 60 empty canvas empty 20 12 0 14 #ff8b54 #404040 0;
#X obj 93 239 print;
#X obj 222 122 tgl 19 0 se re1 empty 0 -10 0 12 #606060 #ffffff #000000 0 1;
#X obj 241 122 tgl 19 0 se re empty 0 -10 0 12 #fcfcfc #000000 #000000 0 1;
#X obj 139 276 tgl 19 0 se re1 empty 0 -10 0 12 #000000 #000000 #000000 0 1;
#X obj 169 276 tgl 19 0 se re empty 0 -10 0 12 #fcfcfc #000000 #000000 0 1;
#X obj 260 122 tgl 19 0 se re1 empty 0 -10 0 12 #606060 #ffffff #000000 0 1;
#X obj 279 122 tgl 19 0 se re empty 0 -10 0 12 #fcfcfc #000000 #000000 0 1;
#X obj 298 122 tgl 19 0 se re1 empty 0 -10 0 12 #606060 #ffffff #000000 0 1;
#X obj 317 122 tgl 19 0 se re empty 0 -10 0 12 #fcfcfc #000000 #000000 0 1;
#X obj 336 122 tgl 19 0 se re1 empty 0 -10 0 12 #606060 #ffffff #000000 0 1;
#X obj 355 122 tgl 19 0 se re empty 0 -10 0 12 #fcfcfc #000000 #000000 0 1;
#X obj 241 189 tgl 19 0 se re1 empty 0 -10 0 12 #606060 #ffffff #000000 0 1;
#X obj 260 189 tgl 19 0 se re empty 0 -10 0 12 #fcfcfc #000000 #000000 0 1;
#X obj 279 189 tgl 19 0 se re1 empty 0 -10 0 12 #606060 #ffffff #000000 0 1;
#X obj 298 189 tgl 19 0 se re empty 0 -10 0 12 #fcfcfc #000000 #000000 0 1;
#X obj 317 189 tgl 19 0 se re1 empty 0 -10 0 12 #606060 #ffffff #000000 0 1;
#X obj 336 189 tgl 19 0 se re empty 0 -10 0 12 #fcfcfc #000000 #000000 0 1;
#X obj 355 189 tgl 19 0 se re1 empty 0 -10 0 12 #606060 #ffffff #000000 0 1;
#X obj 222 189 tgl 19 0 se re empty 0 -10 0 12 #fcfcfc #000000 #000000 0 1;
#X obj 458 112 tgl 19 0 se re1 empty 0 -10 0 12 #9c00ff #ffffff #000000 0 1;
#X obj 477 112 tgl 19 0 se re empty 0 -10 0 12 #fcfcfc #000000 #000000 0 1;
#X obj 496 112 tgl 19 0 se re empty 0 -10 0 12 #fcfcfc #000000 #000000 0 1;
#X obj 515 112 tgl 19 0 se re empty 0 -10 0 12 #fcfcfc #000000 #000000 0 1;
#X obj 534 112 tgl 19 0 se re1 empty 0 -10 0 12 #606060 #ffffff #000000 0 1;
#X obj 553 112 tgl 19 0 se re empty 0 -10 0 12 #fcfcfc #000000 #000000 0 1;
#X obj 572 112 tgl 19 0 se re empty 0 -10 0 12 #fcfcfc #000000 #000000 0 1;
#X obj 591 112 tgl 19 0 se re empty 0 -10 0 12 #fcfcfc #000000 #000000 0 1;
#X obj 610 112 tgl 19 0 se re1 empty 0 -10 0 12 #9c00ff #ffffff #000000 0 1;
#X obj 629 112 tgl 19 0 se re empty 0 -10 0 12 #fcfcfc #000000 #000000 0 1;
#X obj 648 112 tgl 19 0 se re empty 0 -10 0 12 #fcfcfc #000000 #000000 0 1;
#X obj 667 112 tgl 19 0 se re empty 0 -10 0 12 #fcfcfc #000000 #000000 0 1;
#X obj 686 112 tgl 19 0 se re1 empty 0 -10 0 12 #9c00ff #ffffff #000000 0 1;
#X obj 743 112 tgl 19 0 se re empty 0 -10 0 12 #fcfcfc #000000 #000000 0 1;
#X obj 724 112 tgl 19 0 se re1 empty 0 -10 0 12 #9c00ff #ffffff #000000 0 1;
#X obj 705 112 tgl 19 0 se re1 empty 0 -10 0 12 #9c00ff #ffffff #000000 0 1;
#X obj 458 52 tgl 19 0 se re1 empty 0 -10 0 12 #606060 #ffffff #000000 0 1;
#X obj 477 52 tgl 19 0 se re empty 0 -10 0 12 #fcfcfc #000000 #000000 0 1;
#X obj 496 52 tgl 19 0 se re empty 0 -10 0 12 #fcfcfc #000000 #000000 0 1;
#X obj 515 52 tgl 19 0 se re empty 0 -10 0 12 #fcfcfc #000000 #000000 0 1;
#X obj 572 52 tgl 19 0 se re1 empty 0 -10 0 12 #9c00ff #ffffff #000000 0 1;
#X obj 553 52 tgl 19 0 se re empty 0 -10 0 12 #fcfcfc #000000 #000000 0 1;
#X obj 534 52 tgl 19 0 se re empty 0 -10 0 12 #fcfcfc #000000 #000000 0 1;
#X obj 591 52 tgl 19 0 se re empty 0 -10 0 12 #fcfcfc #000000 #000000 0 1;
#X obj 724 52 tgl 19 0 se re1 empty 0 -10 0 12 #9c00ff #ffffff #000000 0 1;
#X obj 610 52 tgl 19 0 se re empty 0 -10 0 12 #fcfcfc #000000 #000000 0 1;
#X obj 629 52 tgl 19 0 se re empty 0 -10 0 12 #fcfcfc #000000 #000000 0 1;
#X obj 743 52 tgl 19 0 se re empty 0 -10 0 12 #fcfcfc #000000 #000000 0 1;
#X obj 648 52 tgl 19 0 se re1 empty 0 -10 0 12 #9c00ff #ffffff #000000 0 1;
#X obj 705 52 tgl 19 0 se re empty 0 -10 0 12 #fcfcfc #000000 #000000 0 1;
#X obj 686 52 tgl 19 0 se re1 empty 0 -10 0 12 #9c00ff #ffffff #000000 0 1;
#X obj 667 52 tgl 19 0 se re1 empty 0 -10 0 12 #9c00ff #ffffff #000000 0 1;
#X obj 460 207 tgl 19 0 se re1 empty 0 -10 0 12 #606060 #ffffff #000000 0 1;
#X obj 479 207 tgl 19 0 se re empty 0 -10 0 12 #fcfcfc #000000 #000000 0 1;
#X obj 498 207 tgl 19 0 se re empty 0 -10 0 12 #fcfcfc #000000 #000000 0 1;
#X obj 517 207 tgl 19 0 se re empty 0 -10 0 12 #fcfcfc #000000 #000000 0 1;
#X obj 555 207 tgl 19 0 se re1 empty 0 -10 0 12 #606060 #ffffff #000000 0 1;
#X obj 574 207 tgl 19 0 se re1 empty 0 -10 0 12 #606060 #ffffff #000000 0 1;
#X obj 612 207 tgl 19 0 se re1 empty 0 -10 0 12 #606060 #ffffff #000000 0 1;
#X obj 593 207 tgl 19 0 se re empty 0 -10 0 12 #fcfcfc #000000 #000000 0 1;
#X obj 631 207 tgl 19 0 se re empty 0 -10 0 12 #fcfcfc #000000 #000000 0 1;
#X obj 650 207 tgl 19 0 se re empty 0 -10 0 12 #fcfcfc #000000 #000000 0 1;
#X obj 669 207 tgl 19 0 se re empty 0 -10 0 12 #fcfcfc #000000 #000000 0 1;
#X obj 688 207 tgl 19 0 se re empty 0 -10 0 12 #fcfcfc #000000 #000000 0 1;
#X obj 707 207 tgl 19 0 se re empty 0 -10 0 12 #fcfcfc #000000 #000000 0 1;
#X obj 726 207 tgl 19 0 se re empty 0 -10 0 12 #fcfcfc #000000 #000000 0 1;
#X obj 745 207 tgl 19 0 se re empty 0 -10 0 12 #fcfcfc #000000 #000000 0 1;
#X obj 536 207 tgl 19 0 se re empty 0 -10 0 12 #fcfcfc #000000 #000000 0 1;
#X connect 0 0 4 0;
#X connect 1 0 0 0;
#X connect 2 0 0 1;
#X connect 3 0 0 2;
#X connect 4 0 5 0;
#X connect 4 0 7 0;
