#N canvas 80 222 757 577 12;
#X obj 82 191 notein;
#X floatatom 147 213 5 0 0 0 - - - 0;
#X floatatom 199 211 5 0 0 0 - - - 0;
#X obj 63 83 ctlin;
#X floatatom 20 106 5 0 0 0 - - - 0;
#X floatatom 61 107 5 0 0 0 - - - 0;
#X floatatom 104 109 5 0 0 0 - - - 0;
#N canvas 20 83 683 441 sequencer 0;
#X obj 96 30 inlet;
#X obj 96 54 tgl 19 0 empty empty empty 0 -10 0 12 #fcfcfc #000000 #000000 0 1;
#X obj 96 104 t f b;
#X obj 96 177 f;
#X obj 96 201 % 16;
#X obj 96 249 outlet;
#X obj 125 176 + 1;
#X msg 118 151 0;
#X msg 147 103 tempo \$1 permin;
#X obj 230 220 sel 0 1 2 3 4 5 6 7 8 9 10 11 12 13 14 15;
#X floatatom 129 74 5 0 0 0 - bpm-r - 0;
#X obj 204 267 s \$0-step-0-r;
#X obj 204 287 s \$0-step-1-r;
#X obj 204 307 s \$0-step-2-r;
#X obj 204 327 s \$0-step-3-r;
#X obj 302 267 s \$0-step-4-r;
#X obj 302 287 s \$0-step-5-r;
#X obj 302 327 s \$0-step-7-r;
#X obj 400 267 s \$0-step-8-r;
#X obj 400 287 s \$0-step-9-r;
#X obj 400 307 s \$0-step-10-r;
#X obj 400 327 s \$0-step-11-r;
#X obj 505 267 s \$0-step-12-r;
#X obj 505 287 s \$0-step-13-r;
#X obj 505 307 s \$0-step-14-r;
#X obj 505 327 s \$0-step-15-r;
#X obj 302 307 s \$0-step-6-r;
#X obj 96 128 metro 0.5 120 permin;
#X obj 328 144 / 2;
#X obj 348 110 bng 19 250 50 0 empty empty empty 0 -10 0 12 #fcfcfc #000000 #000000;
#X obj 328 86 r bpm-r;
#X obj 328 168 s bpm-s;
#X obj 105 225 s step-s;
#X connect 0 0 1 0;
#X connect 1 0 2 0;
#X connect 2 0 27 0;
#X connect 2 1 7 0;
#X connect 3 0 4 0;
#X connect 3 0 6 0;
#X connect 4 0 5 0;
#X connect 4 0 9 0;
#X connect 4 0 32 0;
#X connect 6 0 3 1;
#X connect 7 0 3 1;
#X connect 8 0 27 0;
#X connect 9 0 11 0;
#X connect 9 1 12 0;
#X connect 9 2 13 0;
#X connect 9 3 14 0;
#X connect 9 4 15 0;
#X connect 9 5 16 0;
#X connect 9 6 26 0;
#X connect 9 7 17 0;
#X connect 9 8 18 0;
#X connect 9 9 19 0;
#X connect 9 10 20 0;
#X connect 9 11 21 0;
#X connect 9 12 22 0;
#X connect 9 13 23 0;
#X connect 9 14 24 0;
#X connect 9 15 25 0;
#X connect 10 0 8 0;
#X connect 27 0 3 0;
#X connect 28 0 31 0;
#X connect 29 0 28 0;
#X connect 30 0 28 0;
#X connect 30 0 29 0;
#X restore 16 53 pd sequencer;
#X obj 16 26 tgl 19 0 empty empty empty 0 -10 0 12 #404040 #ffffff #404040 0 1;
#X floatatom 67 32 5 0 0 1 Step \$0-step-s - 0;
#X msg 144 14 \; pd dsp 1;
#X msg 143 53 \; pd dsp 0;
#X obj 264 71 bng 19 75 50 0 \$0-step-0-s \$0-step-0-r Step\ Sequencer 0 -10 0 12 #ffc7c6 #000000 #000000;
#X obj 283 71 bng 19 75 50 0 \$0-step-1-s \$0-step-1-r empty 0 -10 0 12 #fcfcfc #000000 #000000;
#X obj 302 71 bng 19 75 50 0 \$0-step-2-s \$0-step-2-r empty 0 -10 0 12 #fcfcfc #000000 #000000;
#X obj 321 71 bng 19 75 50 0 \$0-step-3-s \$0-step-3-r empty 0 -10 0 12 #fcfcfc #000000 #000000;
#X obj 340 71 bng 19 75 50 0 \$0-step-4-s \$0-step-4-r empty 0 -10 0 12 #fcfcfc #000000 #000000;
#X obj 359 71 bng 19 75 50 0 \$0-step-5-s \$0-step-5-r empty 0 -10 0 12 #fcfcfc #000000 #000000;
#X obj 378 71 bng 19 75 50 0 \$0-step-6-s \$0-step-6-r empty 0 -10 0 12 #fcfcfc #000000 #000000;
#X obj 397 71 bng 19 75 50 0 \$0-step-7-s \$0-step-7-r empty 0 -10 0 12 #fcfcfc #000000 #000000;
#X obj 416 71 bng 19 75 50 0 \$0-step-8-s \$0-step-8-r empty 0 -10 0 12 #ffe3c6 #000000 #000000;
#X obj 435 71 bng 19 75 50 0 \$0-step-9-s \$0-step-9-r empty 0 -10 0 12 #fcfcfc #000000 #000000;
#X obj 454 71 bng 19 75 50 0 \$0-step-10-s \$0-step-10-r empty 0 -10 0 12 #fcfcfc #000000 #000000;
#X obj 473 71 bng 19 75 50 0 \$0-step-11-s \$0-step-11-r empty 0 -10 0 12 #fcfcfc #000000 #000000;
#X obj 492 71 bng 19 75 50 0 \$0-step-12-s \$0-step-12-r empty 0 -10 0 12 #fcfcfc #000000 #000000;
#X obj 511 71 bng 19 75 50 0 \$0-step-13-s \$0-step-13-r empty 0 -10 0 12 #fcfcfc #000000 #000000;
#X obj 530 71 bng 19 75 50 0 \$0-step-14-s \$0-step-14-r empty 0 -10 0 12 #fcfcfc #000000 #000000;
#X obj 549 71 bng 19 75 50 0 \$0-step-15-s \$0-step-15-r empty 0 -10 0 12 #fcfcfc #000000 #000000;
#X obj 603 453 dac~;
#X obj 603 427 *~;
#X obj 465 298 r step-s;
#X floatatom 593 310 5 0 0 0 - - - 0;
#X obj 570 373 bng 19 250 50 0 empty empty empty 0 -10 0 12 #fcfcfc #000000 #000000;
#X floatatom 665 465 5 0 0 0 - - - 0;
#X msg 647 433 1;
#X obj 266 26 hsl 162 19 90 360 0 0 bpm-r empty empty -2 -10 0 12 #fcfcfc #000000 #000000 0 1;
#X msg 680 433 0.35;
#X obj 101 327 tabwrite arr;
#N canvas 0 22 450 278 (subpatch) 0;
#X array arr 16 float 3;
#A 0 117 127 0 0 127 0 0 0 127 0 0 0 0 110 127 0;
#X coords 0 130 16 -1 200 140 1 0 0;
#X restore 263 110 graph;
#X obj 291 495 netsend;
#X obj 290 425 pack f f;
#X msg 299 472 connect 127.0.0.1 1338;
#X obj 97 272 spigot;
#X obj 299 450 loadbang;
#X obj 182 284 r step-s;
#X obj 237 464 print;
#X obj 542 345 sel 1;
#X obj 596 341 sel 5 9 13;
#X msg 32 495 0 0 \, 0 1 \, 0 2 \, 0 3 \, 0 4 \, 0 5 \, 0 6 \, 0 7 \, 0 8 \, 0 9 \, 0 10 \, 0 11 \, 0 12 \, 0 13 \, 0 14 \, 0 15, f 23;
#X obj 290 371 tabread arr;
#X obj 486 524 netsend;
#X obj 497 475 loadbang;
#X msg 494 501 connect 127.0.0.1 1339;
#X obj 487 426 tgl 19 0 empty empty empty 0 -10 0 12 #fcfcfc #000000 #000000 0 1;
#X obj 383 426 spigot;
#N canvas 92 135 450 300 clave_2 0;
#X obj 10 13 inlet;
#X obj 10 36 bng 15 250 50 0 empty empty empty 17 7 0 10 #fcfcfc #000000 #000000;
#X obj 10 162 outlet~;
#X obj 91 6 tgl 19 0 empty init-instruments empty 0 -10 0 12 #fcfcfc #000000 #000000 0 1;
#N canvas 0 22 450 278 (subpatch) 0;
#X array clave2 2350 float 0;
#X coords 0 1 2349 -1 200 140 1 0 0;
#X restore 179 68 graph;
#X obj 91 54 soundfiler;
#X obj 10 133 *~;
#X floatatom 45 112 5 0 10 0 - - - 0;
#X obj 123 6 loadbang;
#X msg 113 114 0.8;
#X msg 91 30 read -resize Samples/808clave-sat3.wav clave2;
#X obj 10 86 tabplay~ clave2;
#X connect 0 0 1 0;
#X connect 1 0 11 0;
#X connect 3 0 10 0;
#X connect 6 0 2 0;
#X connect 7 0 6 1;
#X connect 8 0 10 0;
#X connect 8 0 9 0;
#X connect 9 0 7 0;
#X connect 10 0 5 0;
#X connect 11 0 6 0;
#X restore 603 398 pd clave_2;
#X connect 0 1 1 0;
#X connect 0 1 42 0;
#X connect 0 2 2 0;
#X connect 1 0 42 1;
#X connect 3 0 4 0;
#X connect 3 1 5 0;
#X connect 3 2 6 0;
#X connect 8 0 7 0;
#X connect 29 0 28 0;
#X connect 29 0 28 1;
#X connect 30 0 31 0;
#X connect 30 0 40 1;
#X connect 30 0 49 0;
#X connect 31 0 46 0;
#X connect 31 0 47 0;
#X connect 32 0 55 0;
#X connect 33 0 29 1;
#X connect 34 0 33 0;
#X connect 36 0 33 0;
#X connect 40 0 45 0;
#X connect 40 0 54 0;
#X connect 41 0 39 0;
#X connect 42 0 37 0;
#X connect 43 0 41 0;
#X connect 44 0 37 1;
#X connect 46 0 32 0;
#X connect 46 0 34 0;
#X connect 47 0 32 0;
#X connect 47 0 36 0;
#X connect 47 1 32 0;
#X connect 47 1 36 0;
#X connect 47 2 32 0;
#X connect 47 2 36 0;
#X connect 48 0 37 0;
#X connect 49 0 40 0;
#X connect 52 0 50 0;
#X connect 53 0 54 1;
#X connect 54 0 39 0;
#X connect 55 0 29 0;
